<svg width="120" height="120" viewBox="0 0 120 120" fill="none" xmlns="http://www.w3.org/2000/svg">
<path opacity="0.5" fill-rule="evenodd" clip-rule="evenodd" d="M29.8303 29.8254C13.4238 46.2296 0 59.7922 0 59.9652C0 60.1379 13.4941 73.7163 29.9868 90.1397L59.9736 120L89.9868 89.9944L120 59.9888L90.0007 29.9944C73.5012 13.4974 59.9246 0 59.831 0C59.7374 0 46.2368 13.4213 29.8303 29.8254ZM83.5785 36.416L107.155 59.9892L83.5775 83.5526L60 107.116L38.0282 85.2407C25.9437 73.2094 15.3049 62.5587 14.3865 61.5729L12.7166 59.78L36.1883 36.3112C49.0979 23.4032 59.737 12.8424 59.831 12.8424C59.925 12.8424 70.6114 23.4505 83.5785 36.416ZM39.3989 39.4194L19.1358 59.851L22.2443 62.9592L25.3531 66.0674L42.5922 48.8342L59.831 31.6014L77.0674 48.8318L94.3041 66.0623L97.3511 63.0301C99.0267 61.3626 100.359 59.8983 100.312 59.7763C100.192 59.4684 59.9297 18.9182 59.7816 18.9564C59.7157 18.9736 50.5437 28.1816 39.3989 39.4194ZM44.1607 54.2513C35.6752 62.7138 28.7324 69.7508 28.7324 69.8886C28.7324 70.0265 30.1775 71.5784 31.9437 73.3368L35.1553 76.5342L38.5352 73.1678L41.9155 69.8011V76.5586V83.3164L46.2301 87.6203C48.603 89.9877 50.6566 91.9245 50.7935 91.9245C50.9304 91.9245 51.0446 84.967 51.0473 76.4629L51.0527 61.0014L53.0856 58.8891C54.2035 57.7276 55.1899 56.7769 55.2774 56.7769C55.365 56.7769 55.4366 65.7875 55.437 76.8009V96.8249L57.6365 98.7915L59.8361 100.758L62.1999 98.6576L64.5634 96.5576L64.5695 76.5826L64.5755 56.6079L66.7734 58.8591L68.9713 61.1102L68.88 76.5173C68.8296 84.9913 68.8668 91.9245 68.9625 91.9245C69.0581 91.9245 71.0738 89.9833 73.4414 87.6108L77.7465 83.2971V76.5491V69.8011L81.1268 73.1678L84.507 76.5346L87.8461 73.2091L91.1848 69.8836L75.6301 54.3744C67.0749 45.8443 59.9659 38.8651 59.8323 38.8651C59.6985 38.8651 52.6465 45.7889 44.1607 54.2513Z" fill="#D9D9D9"/>
</svg>
