<svg width="248" height="40" viewBox="0 0 248 40" fill="none" xmlns="http://www.w3.org/2000/svg">
<path fill-rule="evenodd" clip-rule="evenodd" d="M9.94344 9.94181C4.47459 15.4099 0 19.9307 0 19.9884C0 20.046 4.49803 24.5721 9.99561 30.0466L19.9912 40L29.9956 29.9981L40 19.9963L30.0002 9.99814C24.5004 4.49912 19.9749 0 19.9437 0C19.9125 0 15.4123 4.47377 9.94344 9.94181ZM27.8595 12.1387L35.7183 19.9964L27.8592 27.8509L20 35.7052L12.6761 28.4136C8.64789 24.4031 5.10163 20.8529 4.79549 20.5243L4.23887 19.9267L12.0628 12.1037C16.366 7.80108 19.9123 4.2808 19.9437 4.2808C19.975 4.2808 23.5371 7.81685 27.8595 12.1387ZM13.133 13.1398L6.37859 19.9503L7.41476 20.9864L8.45104 22.0225L14.1974 16.2781L19.9437 10.5338L25.6891 16.2773L31.4347 22.0208L32.4504 21.01C33.0089 20.4542 33.4531 19.9661 33.4372 19.9254C33.3973 19.8228 19.9766 6.30607 19.9272 6.3188C19.9052 6.32454 16.8479 9.39387 13.133 13.1398ZM14.7202 18.0838C11.8917 20.9046 9.57747 23.2503 9.57747 23.2962C9.57747 23.3422 10.0592 23.8595 10.6479 24.4456L11.7184 25.5114L12.8451 24.3893L13.9718 23.267V25.5195V27.7721L15.41 29.2068C16.201 29.9959 16.8855 30.6415 16.9312 30.6415C16.9768 30.6415 17.0149 28.3223 17.0158 25.4876L17.0176 20.3338L17.6952 19.6297C18.0678 19.2425 18.3966 18.9256 18.4258 18.9256C18.455 18.9256 18.4789 21.9292 18.479 25.6003V32.275L19.2122 32.9305L19.9454 33.586L20.7333 32.8859L21.5211 32.1859L21.5232 25.5275L21.5252 18.8693L22.2578 19.6197L22.9904 20.3701L22.96 25.5058C22.9432 28.3304 22.9556 30.6415 22.9875 30.6415C23.0194 30.6415 23.6913 29.9944 24.4805 29.2036L25.9155 27.7657V25.5164V23.267L27.0423 24.3893L28.169 25.5115L29.282 24.403L30.3949 23.2945L25.21 18.1248C22.3583 15.2814 19.9886 12.955 19.9441 12.955C19.8995 12.955 17.5488 15.263 14.7202 18.0838Z" fill="white"/>
<path d="M58.5723 13.7252C57.5752 14.6109 56.2953 15.0992 54.9703 15.0992C53.6453 15.0992 52.3654 14.6109 51.3683 13.7252C50.9045 13.2468 50.5439 12.6757 50.3094 12.0482C50.075 11.4207 49.9719 10.7505 50.0066 10.0802C49.9754 9.40925 50.0802 8.73889 50.3144 8.11063C50.5486 7.48236 50.9073 6.90955 51.3683 6.42761C52.3696 5.55093 53.648 5.06865 54.9703 5.06865C56.2926 5.06865 57.5709 5.55093 58.5723 6.42761C59.0343 6.90917 59.3941 7.48174 59.6296 8.10996C59.8651 8.73819 59.9713 9.40874 59.9416 10.0802C59.9749 10.751 59.8703 11.4214 59.6346 12.0489C59.3988 12.6764 59.0371 13.2472 58.5723 13.7252ZM53.3614 12.0494C53.5659 12.2758 53.8145 12.4565 54.0915 12.5801C54.3685 12.7037 54.6677 12.7676 54.9703 12.7676C55.2729 12.7676 55.5721 12.7037 55.8491 12.5801C56.1261 12.4565 56.3747 12.2758 56.5792 12.0494C57.0074 11.4887 57.2184 10.7882 57.1726 10.0802C57.2124 9.37541 57.0018 8.67947 56.5792 8.11879C56.3747 7.89245 56.1261 7.71173 55.8491 7.5881C55.5721 7.46447 55.2729 7.40063 54.9703 7.40063C54.6677 7.40063 54.3685 7.46447 54.0915 7.5881C53.8145 7.71173 53.5659 7.89245 53.3614 8.11879C52.9417 8.68103 52.7315 9.37583 52.768 10.0802C52.7221 10.7882 52.9332 11.4887 53.3614 12.0494ZM63.0682 10.1806H61.3033L60.8697 5.26155H63.5246L63.0682 10.1806ZM70.8732 12.4973H72.7674V14.8989H64.6505V12.8062L67.4423 9.64007L69.2224 7.65545H66.4762H64.7874V5.28472H72.7065V7.33112L69.9147 10.5281L68.1194 12.4973H70.8732ZM80.7626 9.74819C81.2417 9.91987 81.6546 10.2417 81.9417 10.6671C82.2293 11.0747 82.3837 11.5636 82.3829 12.0649C82.4042 12.4598 82.3349 12.8544 82.1805 13.2175C82.026 13.5807 81.7906 13.9025 81.4929 14.1576C80.7159 14.7172 79.7736 14.9897 78.8228 14.9298H74.0302V5.28472H78.7315C79.6221 5.20335 80.5114 5.45307 81.2343 5.98744C81.4781 6.20335 81.6724 6.4707 81.8038 6.77082C81.9352 7.07094 82.0005 7.39657 81.995 7.72495C82.019 8.14885 81.9126 8.56984 81.6904 8.92958C81.4682 9.28933 81.1413 9.57001 80.755 9.73274L80.7626 9.74819ZM78.5413 7.41606H76.6851V9.0609H78.5489C78.6924 9.08695 78.8404 9.06298 78.9689 8.99289C79.0973 8.92279 79.1986 8.8107 79.2564 8.67479C79.3238 8.54092 79.359 8.39271 79.359 8.24234C79.359 8.09198 79.3238 7.94377 79.2564 7.8099C79.1977 7.67426 79.0965 7.56211 78.9686 7.49088C78.8407 7.41966 78.6931 7.39335 78.5489 7.41606H78.5413ZM76.6775 12.8216H78.6706C79.3096 12.8216 79.6291 12.5282 79.6291 11.9413C79.6291 11.3621 79.3096 11.0687 78.6706 11.0687H76.6851L76.6775 12.8216ZM90.9715 5.33877V7.7404H86.1637V9.00685H90.5455V11.2463H86.1637V12.4973H90.9715V14.8989H83.5088V5.28472L90.9715 5.33877ZM98.3429 5.33877H101.561L97.8408 9.26168L101.561 14.9376H98.4266L95.9695 11.0764L94.8968 12.1807V14.9298H92.2343V5.28472H94.8968V9.08407L98.3429 5.33877ZM105.014 14.9376H102.36V5.28472H105.014V14.9376ZM110.34 15.1538C109.224 15.2269 108.117 14.9079 107.205 14.2503C106.846 13.9535 106.559 13.5755 106.369 13.1465C106.179 12.7174 106.09 12.2492 106.11 11.7791H108.712C108.692 11.9759 108.722 12.1744 108.797 12.3565C108.873 12.5387 108.993 12.6986 109.145 12.8216C109.561 13.0382 110.026 13.1369 110.492 13.1074C111.374 13.1074 111.815 12.8139 111.815 12.2425C111.824 12.1245 111.8 12.0065 111.746 11.9016C111.692 11.7966 111.611 11.7088 111.511 11.6479C111.139 11.4696 110.741 11.3548 110.332 11.3081L109.571 11.1923C107.38 10.8293 106.292 9.79452 106.292 8.10334C106.277 7.68846 106.36 7.27586 106.533 6.8998C106.706 6.52374 106.965 6.19509 107.289 5.94111C108.136 5.36499 109.148 5.09314 110.165 5.16888C111.198 5.09219 112.227 5.36362 113.093 5.94111C113.442 6.22435 113.723 6.58408 113.916 6.99332C114.108 7.40256 114.207 7.85069 114.204 8.30412H111.754C111.757 8.14198 111.724 7.98132 111.657 7.83419C111.589 7.68707 111.49 7.55732 111.367 7.45467C111.037 7.21387 110.639 7.08668 110.233 7.09173C109.427 7.09173 109.023 7.36201 109.023 7.86395C109.015 7.98409 109.039 8.10433 109.092 8.21179C109.146 8.31926 109.227 8.4099 109.328 8.47401C109.662 8.65163 110.026 8.76672 110.4 8.81379L111.161 8.94507C112.091 9.04171 112.978 9.38825 113.732 9.94897C114.005 10.1988 114.219 10.5074 114.358 10.8522C114.498 11.197 114.56 11.5692 114.539 11.9413C114.563 12.3906 114.474 12.8387 114.281 13.2438C114.088 13.6489 113.797 13.9978 113.436 14.258C112.524 14.8265 111.461 15.0961 110.393 15.0302L110.34 15.1538ZM114.896 5.21522H123.127V7.61684H120.335V14.814H117.681V7.68634H114.896V5.21522ZM131.959 13.6557C130.964 14.5424 129.685 15.0314 128.361 15.0314C127.037 15.0314 125.758 14.5424 124.763 13.6557C124.298 13.1777 123.936 12.6069 123.701 11.9794C123.465 11.3519 123.36 10.6815 123.394 10.0107C123.364 9.33924 123.47 8.66869 123.706 8.04046C123.941 7.41224 124.301 6.83967 124.763 6.35811C125.763 5.482 127.04 5 128.361 5C129.682 5 130.959 5.482 131.959 6.35811C132.421 6.83967 132.781 7.41224 133.017 8.04046C133.252 8.66869 133.358 9.33924 133.329 10.0107C133.362 10.6815 133.257 11.3519 133.022 11.9794C132.786 12.6069 132.424 13.1777 131.959 13.6557ZM126.756 11.9799C127.149 12.4119 127.695 12.6682 128.274 12.6928C128.852 12.7174 129.417 12.5083 129.844 12.1112C129.889 12.0713 129.93 12.0273 129.966 11.9799C130.4 11.4216 130.614 10.72 130.567 10.0107C130.604 9.30504 130.391 8.60922 129.966 8.04929C129.579 7.62537 129.043 7.37254 128.474 7.34511C127.905 7.31768 127.348 7.51782 126.923 7.90256L126.779 8.04929C126.354 8.60922 126.141 9.30504 126.178 10.0107C126.138 10.7191 126.352 11.4183 126.779 11.9799H126.756ZM140.593 6.78284V5.23838H143.111V14.8835H140.312L138.311 11.4703C137.764 10.5436 137.338 9.75591 137.003 9.09952C137.049 10.42 137.071 11.8255 137.071 13.3236V14.868H134.546V5.28472H137.353L139.361 8.69796C139.833 9.52682 140.266 10.3222 140.662 11.0841C140.616 9.76363 140.593 8.35046 140.593 6.85234V6.78284ZM156.28 12.6286L156.333 13.9105C156.334 14.2492 156.415 14.5828 156.569 14.8835H153.838C153.711 14.5754 153.646 14.2445 153.648 13.9105L153.594 12.8216C153.607 12.6431 153.585 12.4638 153.528 12.2941C153.472 12.1244 153.383 11.9678 153.267 11.8332C152.988 11.6335 152.649 11.5405 152.309 11.5706H150.924V14.8835H148.269V5.28472H152.917C153.871 5.19822 154.822 5.47333 155.587 6.05694C155.865 6.31635 156.085 6.63326 156.232 6.98629C156.379 7.33931 156.45 7.72023 156.439 8.10334C156.442 8.57656 156.31 9.04048 156.059 9.4393C155.791 9.84877 155.41 10.1685 154.964 10.3582C155.375 10.4835 155.728 10.7584 155.952 11.1305C156.157 11.5917 156.264 12.0918 156.264 12.5977L156.28 12.6286ZM150.939 7.35428V9.57057H152.537C153.298 9.57057 153.716 9.19991 153.716 8.45857C153.716 7.71723 153.32 7.35428 152.537 7.35428H150.939ZM165.165 5.25383V7.65545H160.357V8.92191H164.739V11.1614H160.357V12.4973H165.165V14.8989H157.702V5.28472L165.165 5.25383ZM170.254 15.0688C169.141 15.1421 168.036 14.823 167.128 14.1653C166.764 13.8769 166.472 13.5058 166.275 13.082C166.078 12.6582 165.982 12.1935 165.994 11.7251H168.542C168.522 11.9226 168.553 12.1221 168.63 12.3045C168.707 12.4869 168.829 12.6463 168.984 12.7676C169.396 12.9849 169.859 13.0837 170.323 13.0533C171.205 13.0533 171.654 12.7599 171.654 12.1884C171.66 12.0707 171.636 11.9534 171.582 11.8487C171.529 11.7441 171.448 11.656 171.35 11.5938C170.975 11.4164 170.574 11.3017 170.163 11.254L169.402 11.1382C167.216 10.7778 166.123 9.74819 166.123 8.04929C166.108 7.63365 166.192 7.22041 166.366 6.84421C166.541 6.468 166.802 6.13978 167.128 5.88705C167.972 5.30591 168.986 5.03359 170.003 5.11483C171.034 5.03928 172.061 5.31068 172.924 5.88705C173.274 6.16914 173.556 6.52864 173.749 6.93815C173.941 7.34765 174.039 7.79636 174.035 8.25007H171.54C171.544 8.08847 171.512 7.92801 171.446 7.78084C171.38 7.63367 171.282 7.50365 171.159 7.40062C170.822 7.1979 170.432 7.10367 170.041 7.13034C169.235 7.13034 168.832 7.40062 168.832 7.90256C168.823 8.0227 168.847 8.14294 168.9 8.25041C168.954 8.35787 169.035 8.44851 169.136 8.51262C169.473 8.69144 169.839 8.80657 170.216 8.8524L170.977 8.98368C171.906 9.08357 172.793 9.42979 173.548 9.98758C173.819 10.2381 174.032 10.5471 174.17 10.8919C174.308 11.2366 174.369 11.6084 174.347 11.9799C174.373 12.4295 174.285 12.8784 174.092 13.2838C173.899 13.6893 173.607 14.038 173.244 14.2966C172.332 14.8661 171.269 15.1358 170.201 15.0688H170.254ZM175.526 5.25383H179.961C180.928 5.19719 181.881 5.5176 182.623 6.14961C182.95 6.46945 183.205 6.85726 183.371 7.28645C183.536 7.71564 183.608 8.17607 183.582 8.63618C183.602 9.09049 183.526 9.54385 183.359 9.96599C183.193 10.3881 182.939 10.7693 182.616 11.0841C181.873 11.7162 180.921 12.0366 179.953 11.9799H178.173V14.8912H175.518L175.526 5.25383ZM178.181 9.67869H179.763C180.076 9.69358 180.383 9.59502 180.63 9.40068C180.831 9.18309 180.943 8.89593 180.943 8.59757C180.943 8.29921 180.831 8.01204 180.63 7.79445C180.386 7.59364 180.076 7.49428 179.763 7.51645H178.181V9.67869ZM188.899 15.0843C187.798 15.1311 186.717 14.7718 185.857 14.0727C185.454 13.7156 185.137 13.2697 184.93 12.7691C184.723 12.2685 184.631 11.7265 184.662 11.1845V5.28472H187.317V11.2309C187.305 11.4428 187.335 11.655 187.407 11.8543C187.479 12.0536 187.591 12.2357 187.736 12.3892C188.073 12.6516 188.486 12.7938 188.911 12.7938C189.336 12.7938 189.749 12.6516 190.086 12.3892C190.233 12.2373 190.346 12.0555 190.418 11.8558C190.49 11.6561 190.52 11.443 190.505 11.2309V5.28472H193.152V11.2077C193.187 11.7476 193.101 12.2885 192.9 12.79C192.7 13.2914 192.391 13.7405 191.996 14.1035C191.114 14.8015 190.016 15.155 188.899 15.0997V15.0843ZM201.345 9.73274C201.824 9.90443 202.237 10.2262 202.524 10.6517C202.812 11.0592 202.966 11.5481 202.965 12.0494C202.987 12.4451 202.917 12.8405 202.761 13.2039C202.605 13.5673 202.368 13.8886 202.068 14.1422C201.294 14.7029 200.354 14.9756 199.405 14.9144H194.612V5.28472H199.314C200.202 5.20383 201.089 5.4536 201.809 5.98744C202.056 6.20091 202.252 6.46781 202.384 6.7685C202.515 7.0692 202.579 7.39603 202.57 7.72495C202.595 8.14815 202.491 8.56899 202.27 8.92886C202.049 9.28873 201.723 9.56973 201.337 9.73274H201.345ZM199.124 7.41606H197.26V9.0609H199.116C199.26 9.08602 199.409 9.06174 199.538 8.99185C199.668 8.92197 199.771 8.81045 199.831 8.67479C199.898 8.54092 199.934 8.39271 199.934 8.24234C199.934 8.09198 199.898 7.94377 199.831 7.8099C199.775 7.66872 199.674 7.55041 199.545 7.47354C199.416 7.39668 199.265 7.36559 199.116 7.38517L199.124 7.41606ZM197.267 12.8216H199.238C199.877 12.8216 200.196 12.5282 200.196 11.9413C200.196 11.3621 199.877 11.0687 199.238 11.0687H197.26L197.267 12.8216ZM206.754 5.33877V12.4973H210.938V14.8989H204.091V5.28472L206.754 5.33877ZM214.658 14.9376H211.995V5.28472H214.658V14.9376ZM222.356 5.33877H225.574L221.854 9.26168L225.574 14.9376H222.44L219.983 11.0764L218.902 12.1807V14.9298H216.247V5.28472H218.902V9.08407L222.356 5.33877ZM235.752 14.8835H232.938L232.535 13.6325H228.83L228.434 14.8835H225.718L229.081 5.28472H232.268L235.752 14.8835ZM230.207 9.19218L229.522 11.4085H231.804L231.097 9.19218C230.853 8.41996 230.701 7.91029 230.648 7.64773C230.427 8.41996 230.275 8.89874 230.199 9.19218H230.207ZM240.043 15.0997C238.927 15.1716 237.821 14.8527 236.909 14.1962C236.546 13.901 236.256 13.5239 236.062 13.0949C235.867 12.6659 235.775 12.1969 235.79 11.7251H238.346C238.327 11.9207 238.356 12.1181 238.432 12.299C238.508 12.48 238.628 12.6385 238.78 12.7599C239.195 12.9764 239.661 13.0751 240.127 13.0456C241.009 13.0456 241.45 12.7521 241.45 12.1807C241.458 12.0627 241.434 11.9448 241.381 11.8398C241.327 11.7349 241.246 11.6471 241.146 11.5861C240.774 11.4078 240.376 11.293 239.967 11.2463L239.206 11.1305C237.015 10.7675 235.927 9.73274 235.927 8.04157C235.912 7.62668 235.995 7.21408 236.168 6.83802C236.341 6.46197 236.6 6.13331 236.924 5.87933C237.771 5.30321 238.783 5.03136 239.799 5.1071C240.833 5.03041 241.862 5.30184 242.728 5.87933C243.077 6.16258 243.358 6.5223 243.55 6.93154C243.743 7.34078 243.841 7.78892 243.839 8.24234H241.344C241.348 8.08074 241.316 7.92028 241.25 7.77312C241.184 7.62595 241.086 7.49592 240.963 7.39289C240.634 7.1824 240.249 7.07746 239.86 7.09173C239.054 7.09173 238.651 7.36201 238.651 7.86395C238.642 7.98409 238.666 8.10433 238.72 8.21179C238.773 8.31926 238.855 8.4099 238.955 8.47401C239.29 8.65163 239.653 8.76672 240.028 8.81379L240.788 8.94507C241.718 9.04171 242.606 9.38825 243.36 9.94897C243.63 10.2002 243.843 10.509 243.983 10.8535C244.122 11.1979 244.185 11.5694 244.166 11.9413C244.19 12.3906 244.101 12.8387 243.908 13.2438C243.715 13.6489 243.425 13.9978 243.063 14.258C242.159 14.8509 241.096 15.1449 240.02 15.0997H240.043ZM248 14.8835H245.337V5.28472H247.992L248 14.8835ZM59.9416 29.1851C59.9931 30.4864 59.5397 31.7563 58.6788 32.7219L59.6449 33.8108L58.3821 35L57.2715 33.7335C56.5506 34.0478 55.7738 34.2081 54.9893 34.2046C54.3282 34.2329 53.6682 34.1258 53.0487 33.8896C52.4292 33.6535 51.8629 33.2931 51.3835 32.83C50.9205 32.3512 50.5604 31.78 50.326 31.1526C50.0916 30.5252 49.988 29.8553 50.0218 29.1851C49.9902 28.5141 50.0947 27.8436 50.329 27.2153C50.5632 26.5869 50.9221 26.0142 51.3835 25.5325C52.3848 24.6558 53.6632 24.1735 54.9855 24.1735C56.3078 24.1735 57.5862 24.6558 58.5875 25.5325C59.0502 26.0135 59.4106 26.586 59.6461 27.2144C59.8817 27.8427 59.9875 28.5135 59.9568 29.1851H59.9416ZM54.9893 31.8725C55.1885 31.8646 55.3869 31.8414 55.5827 31.803L54.6698 30.7605L55.925 29.5944L56.8987 30.6833C57.1079 30.2133 57.2068 29.7005 57.1878 29.1851C57.2276 28.4803 57.0171 27.7844 56.5944 27.2237C56.3899 26.9973 56.1413 26.8166 55.8643 26.693C55.5873 26.5694 55.2881 26.5055 54.9855 26.5055C54.6829 26.5055 54.3837 26.5694 54.1067 26.693C53.8297 26.8166 53.5811 26.9973 53.3766 27.2237C52.9569 27.7859 52.7468 28.4807 52.7832 29.1851C52.7388 29.8929 52.9497 30.5929 53.3766 31.1543C53.5747 31.3896 53.8227 31.5765 54.1019 31.7008C54.3812 31.8252 54.6846 31.8839 54.9893 31.8725ZM65.2667 34.1892C64.1653 34.236 63.0845 33.8767 62.2238 33.1775C61.8218 32.8197 61.5054 32.3737 61.2985 31.8733C61.0915 31.3729 60.9995 30.8313 61.0294 30.2894V24.3819H63.692V30.3358C63.6796 30.5476 63.7103 30.7599 63.7823 30.9592C63.8543 31.1585 63.966 31.3406 64.1104 31.4941C64.2698 31.6363 64.4554 31.7451 64.6565 31.814C64.8576 31.8829 65.0702 31.9107 65.2819 31.8956C65.7117 31.9246 66.1354 31.7803 66.461 31.4941C66.6041 31.3399 66.7143 31.1575 66.785 30.9583C66.8557 30.759 66.8852 30.5471 66.8718 30.3358V24.3896H69.5267V30.3049C69.5609 30.8459 69.4747 31.3878 69.2745 31.8904C69.0743 32.393 68.7654 32.8435 68.3704 33.2084C67.49 33.9076 66.3908 34.2613 65.2743 34.2046L65.2667 34.1892ZM78.9597 31.718L79.0129 32.9999C79.0143 33.3387 79.0951 33.6722 79.2488 33.9729H76.5178C76.3906 33.6649 76.326 33.3339 76.3276 32.9999L76.2896 31.9111C76.3033 31.7313 76.2814 31.5505 76.2252 31.3794C76.169 31.2083 76.0797 31.0504 75.9624 30.9149C75.6838 30.7146 75.344 30.6216 75.0039 30.6524H73.6194V33.9729H70.9645V24.3896H75.6125C76.566 24.3031 77.5172 24.5782 78.2826 25.1618C78.5594 25.4222 78.7785 25.7393 78.9254 26.0921C79.0723 26.4449 79.1436 26.8253 79.1347 27.2082C79.1391 27.6817 79.0069 28.1461 78.7543 28.5442C78.49 28.9622 78.1085 29.2904 77.6589 29.4863C78.0721 29.6089 78.425 29.8845 78.6478 30.2585C78.8542 30.7192 78.9606 31.2196 78.9597 31.7258V31.718ZM73.6346 26.4823V28.7141H75.2398C76.0005 28.7141 76.4189 28.3511 76.4189 27.6098C76.4189 26.8685 76.0005 26.4901 75.2398 26.4901L73.6346 26.4823ZM83.0524 33.9807H80.3975V24.3896H83.0524V33.9807ZM87.3048 24.3819V31.579H91.4888V33.9807H84.6423V24.3896L87.3048 24.3819ZM95.2087 33.9807H92.5538V24.3896H95.2087V33.9807ZM100.534 34.1969C99.4202 34.2701 98.3159 33.951 97.4072 33.2934C97.0476 32.9966 96.7613 32.6186 96.5711 32.1896C96.3809 31.7605 96.2921 31.2923 96.3118 30.8223H98.8602C98.8444 31.0194 98.8764 31.2174 98.9533 31.3991C99.0302 31.5808 99.1497 31.7407 99.3014 31.8648C99.7131 32.0833 100.177 32.1796 100.64 32.1428C101.53 32.1428 101.972 31.857 101.972 31.2856C101.981 31.1675 101.957 31.0492 101.903 30.9441C101.849 30.839 101.768 30.7513 101.667 30.691C101.293 30.5129 100.892 30.3982 100.481 30.3512L99.7198 30.2276C97.5289 29.8724 96.4335 28.8428 96.4335 27.1387C96.4197 26.7233 96.5037 26.3105 96.6783 25.9345C96.8529 25.5585 97.1132 25.2301 97.4377 24.9765C98.2843 24.4004 99.2966 24.1285 100.313 24.2043C101.344 24.1264 102.372 24.398 103.234 24.9765C103.585 25.2582 103.869 25.6174 104.062 26.0269C104.256 26.4364 104.355 26.8853 104.353 27.3395H101.865C101.869 27.1772 101.836 27.0161 101.769 26.8688C101.701 26.7215 101.602 26.5919 101.477 26.4901C101.144 26.2827 100.756 26.1881 100.366 26.2198C99.5601 26.2198 99.1569 26.4823 99.1569 26.992C99.1483 27.1121 99.1722 27.2324 99.2258 27.3398C99.2794 27.4473 99.3607 27.538 99.4612 27.6021C99.7948 27.7808 100.159 27.8935 100.534 27.9341L101.295 28.0731C102.225 28.166 103.114 28.513 103.866 29.077C104.138 29.3253 104.352 29.6326 104.492 29.9761C104.631 30.3196 104.693 30.6906 104.672 31.0616C104.695 31.5108 104.606 31.9587 104.413 32.3636C104.221 32.7686 103.93 33.1176 103.569 33.3783C102.656 33.9436 101.594 34.213 100.526 34.1505L100.534 34.1969ZM111.754 27.8955V24.3896H114.409V33.9884H111.754V30.2585H108.499V33.9575H105.844V24.3896H108.499V27.8955H111.754ZM124.801 27.9341L125.873 24.3896H128.612L125.387 33.9884H122.199L118.852 24.3896H121.69L122.785 27.9418C123.127 29.0539 123.47 30.2585 123.804 31.6331C124.109 30.328 124.436 29.1002 124.801 27.9418V27.9341ZM137.733 33.9884H134.918L134.515 32.7297H130.773L130.377 33.9884H127.669L131.031 24.3896H134.219L137.733 33.9884ZM132.195 28.2971L131.503 30.5056H133.785L133.055 28.2971C132.804 27.5248 132.652 27.0152 132.606 26.7526C132.378 27.5248 132.226 28.0036 132.149 28.2971H132.195ZM144.374 31.5868H146.268V33.9884H138.174V31.9111L140.966 28.7141L142.746 26.7295H140H138.311V24.3896H146.223V26.436L143.423 29.633L141.643 31.6099H144.389L144.374 31.5868ZM150.194 33.9884H147.531V24.3896H150.194V33.9884ZM159.779 31.7335L159.832 33.0154C159.836 33.3547 159.92 33.6882 160.076 33.9884H157.398C157.269 33.6812 157.206 33.3493 157.215 33.0154L157.17 31.9265C157.183 31.7467 157.161 31.566 157.105 31.3949C157.049 31.2238 156.96 31.0659 156.843 30.9304C156.564 30.7288 156.224 30.6356 155.884 30.6678H154.5V33.9884H151.845V24.3896H156.493C157.446 24.3009 158.398 24.5762 159.163 25.1618C159.441 25.4212 159.661 25.7381 159.808 26.0912C159.954 26.4442 160.025 26.8251 160.015 27.2082C160.019 27.6817 159.887 28.1461 159.634 28.5442C159.36 28.9682 158.965 29.297 158.501 29.4863C158.914 29.6089 159.267 29.8845 159.49 30.2585C159.698 30.7185 159.805 31.2194 159.802 31.7258L159.779 31.7335ZM154.454 26.4901V28.7141H156.051C156.812 28.7141 157.231 28.3511 157.231 27.6098C157.231 26.8685 156.843 26.5055 156.051 26.5055L154.454 26.4901ZM163.872 24.3896V31.5868H168.048V33.9884H161.201V24.3896H163.872ZM171.776 33.9884H169.121V24.3896H171.776V33.9884ZM178.181 30.5365V28.4824H182.654V33.9884H180.851L180.585 32.7297C180.283 33.2137 179.846 33.5955 179.33 33.8262C178.477 34.1948 177.536 34.2977 176.625 34.1216C175.715 33.9456 174.877 33.4987 174.217 32.8378C173.348 31.8321 172.9 30.5213 172.97 29.1851C172.936 28.5167 173.034 27.8482 173.258 27.2185C173.481 26.5888 173.825 26.0105 174.271 25.5171C174.747 25.0537 175.313 24.6953 175.932 24.4641C176.551 24.2328 177.21 24.1339 177.869 24.1734C178.999 24.1268 180.115 24.4518 181.049 25.1001C181.466 25.3945 181.817 25.775 182.079 26.2169C182.342 26.6587 182.509 27.1518 182.57 27.6638H179.862C179.722 27.2732 179.455 26.9426 179.105 26.7264C178.755 26.5103 178.344 26.4215 177.937 26.4746C177.634 26.4604 177.332 26.5178 177.055 26.6425C176.778 26.7671 176.533 26.9555 176.34 27.1928C175.929 27.7703 175.728 28.4741 175.769 29.1851C175.73 29.9042 175.946 30.6138 176.378 31.1852C176.591 31.4264 176.855 31.6156 177.15 31.7387C177.445 31.8617 177.764 31.9154 178.082 31.8956C178.517 31.9102 178.944 31.78 179.299 31.525C179.632 31.2911 179.866 30.938 179.953 30.5365H178.181ZM186.777 33.9884H184.122V24.3896H186.777V33.9884Z" fill="white"/>
</svg>
